HIERARCHY
ROOT Hips
{
	OFFSET -0.001795 -0.223333 0.028219
	CHANNELS 6 Xposition Yposition Zposition Zrotation Yrotation Xrotation 
	JOINT LeftUpLeg
	{
		OFFSET 0.069520 -0.091406 -0.006815
		CHANNELS 3 Zrotation Yrotation Xrotation
		JOINT LeftLeg
		{
			OFFSET 0.034277 -0.375199 -0.004496
			CHANNELS 3 Zrotation Yrotation Xrotation
			JOINT LeftFoot
			{
				OFFSET -0.013596 -0.397961 -0.043693
				CHANNELS 3 Zrotation Yrotation Xrotation
				JOINT LeftToe
				{
					OFFSET 0.026358 -0.055791 0.119288
					CHANNELS 3 Zrotation Yrotation Xrotation
					End Site
					{
						OFFSET 0.000000 0.000000 0.000000
					}
				}
			}
		}
	}
	JOINT RightUpLeg
	{
		OFFSET -0.067670 -0.090522 -0.004320
		CHANNELS 3 Zrotation Yrotation Xrotation
		JOINT RightLeg
		{
			OFFSET -0.038290 -0.382569 -0.008850
			CHANNELS 3 Zrotation Yrotation Xrotation
			JOINT RightFoot
			{
				OFFSET 0.015774 -0.398415 -0.042312
				CHANNELS 3 Zrotation Yrotation Xrotation
				JOINT RightToe
				{
					OFFSET -0.025372 -0.048144 0.123348
					CHANNELS 3 Zrotation Yrotation Xrotation
					End Site
					{
						OFFSET 0.000000 0.000000 0.000000
					}
				}
			}
		}
	}
	JOINT Spine
	{
		OFFSET -0.002533 0.108963 -0.026696
		CHANNELS 3 Zrotation Yrotation Xrotation
		JOINT Spine1
		{
			OFFSET 0.005487 0.135180 0.001092
			CHANNELS 3 Zrotation Yrotation Xrotation
			JOINT Spine2
			{
				OFFSET 0.001457 0.052922 0.025425
				CHANNELS 3 Zrotation Yrotation Xrotation
				JOINT Neck
				{
					OFFSET -0.002778 0.213870 -0.042857
					CHANNELS 3 Zrotation Yrotation Xrotation
					JOINT Head
					{
						OFFSET 0.005152 0.064970 0.051349
						CHANNELS 3 Zrotation Yrotation Xrotation
						End Site
						{
							OFFSET 0.000000 0.000000 0.000000
						}
					}
				}
				JOINT LeftShoulder
				{
					OFFSET 0.078845 0.121749 -0.034090
					CHANNELS 3 Zrotation Yrotation Xrotation
					JOINT LeftArm
					{
						OFFSET 0.090977 0.030469 -0.008868
						CHANNELS 3 Zrotation Yrotation Xrotation
						JOINT LeftForeArm
						{
							OFFSET 0.259612 -0.012772 -0.027456
							CHANNELS 3 Zrotation Yrotation Xrotation
							JOINT LeftHand
							{
								OFFSET 0.249234 0.008986 -0.001171
								CHANNELS 3 Zrotation Yrotation Xrotation
								End Site
								{
									OFFSET 0.000000 0.000000 0.000000
								}
							}
						}
					}
				}
				JOINT RightShoulder
				{
					OFFSET -0.081759 0.118833 -0.038615
					CHANNELS 3 Zrotation Yrotation Xrotation
					JOINT RightArm
					{
						OFFSET -0.096012 0.032551 -0.009143
						CHANNELS 3 Zrotation Yrotation Xrotation
						JOINT RightForeArm
						{
							OFFSET -0.253742 -0.013329 -0.021401
							CHANNELS 3 Zrotation Yrotation Xrotation
							JOINT RightHand
							{
								OFFSET -0.255298 0.007772 -0.005559
								CHANNELS 3 Zrotation Yrotation Xrotation
								End Site
								{
									OFFSET 0.000000 0.000000 0.000000
								}
							}
						}
					}
				}
			}
		}
	}
}
MOTION
Frames: 10
Frame Time: 0.050000
0.056973 0.950243 -0.003793 0.953282 8.844938 13.964666 5.727845 -1.210893 -17.179057 -1.398271 -0.040893 5.512912 0.909589 5.778446 8.247228 0.000000 0.000000 0.000000 -5.754373 0.885898 -16.318326 -3.383698 0.395944 0.187696 1.729721 -0.241011 12.163554 0.000000 0.000000 0.000000 6.406450 -1.415847 9.431168 -3.257509 1.361261 2.332874 -5.267508 8.609941 5.650602 17.308985 -13.260158 -2.916361 0.000000 0.000000 0.000000 -12.893534 -19.210719 4.994803 -36.584952 -24.946825 3.421832 -55.098505 -65.724308 35.791280 0.000000 0.000000 0.000000 -3.671637 8.584801 3.019931 27.492548 24.273955 2.239266 19.912271 71.507752 22.511512 0.000000 0.000000 0.000000 
0.054886 0.950524 -0.004581 0.849457 8.514319 13.523356 6.061078 -1.151437 -16.872439 -1.646633 -0.016048 5.889646 1.246855 6.494190 8.680920 0.000000 0.000000 0.000000 -5.549311 0.913975 -16.331969 -3.536339 0.441044 0.626661 2.055287 0.311160 12.241062 0.000000 0.000000 0.000000 6.461399 -1.408804 9.416440 -2.877264 1.186837 2.483608 -5.082784 8.436335 5.744018 16.593078 -12.738728 -2.724158 0.000000 0.000000 0.000000 -12.397271 -18.627892 4.853472 -37.721836 -25.390563 3.603650 -50.985317 -64.815597 32.392329 0.000000 0.000000 0.000000 -3.731910 8.333096 2.906415 27.209966 24.623061 2.275826 22.081525 74.644477 25.513055 0.000000 0.000000 0.000000 
0.053173 0.951120 -0.005221 0.818703 8.312873 13.131882 6.255599 -1.112797 -16.649774 -1.983493 0.022727 6.248552 1.410806 6.818153 8.860869 0.000000 0.000000 0.000000 -5.641763 0.893489 -15.944205 -3.377199 0.418432 0.566403 2.282403 0.684289 12.340763 0.000000 0.000000 0.000000 6.692040 -1.438880 9.486083 -3.007451 1.258235 2.374186 -4.838321 8.552603 5.860827 16.644058 -12.718112 -2.912803 0.000000 0.000000 0.000000 -11.819719 -18.769421 4.981365 -38.368732 -25.484444 3.645352 -47.247164 -64.524802 29.649564 0.000000 0.000000 0.000000 -3.698968 7.978382 2.772399 27.169863 24.569343 2.250769 28.129099 76.733780 31.501782 0.000000 0.000000 0.000000 
0.051909 0.951022 -0.005770 0.869643 8.515204 12.775931 6.213239 -1.112923 -16.576029 -1.917753 0.001652 6.576882 1.461033 6.886803 8.761118 0.000000 0.000000 0.000000 -5.617588 0.874803 -15.580777 -3.613185 0.459801 0.756653 2.273921 0.650725 12.462835 0.000000 0.000000 0.000000 6.821415 -1.434092 9.341555 -2.785795 1.155403 2.308304 -4.831725 8.789765 6.054410 16.618277 -12.758732 -2.808170 0.000000 0.000000 0.000000 -11.795292 -18.677798 4.871145 -39.011524 -25.257153 3.646630 -45.682467 -64.446655 28.405892 0.000000 0.000000 0.000000 -3.746602 7.951160 2.746404 27.731589 24.309463 2.278720 34.325300 78.473753 37.969151 0.000000 0.000000 0.000000 
0.051125 0.950556 -0.006312 1.023145 8.781398 12.430854 6.167047 -1.106819 -16.361539 -2.092448 0.014741 6.894446 1.388326 6.765522 8.715650 0.000000 0.000000 0.000000 -5.754517 0.836588 -15.225824 -3.687425 0.476166 0.842935 2.242339 0.757941 12.082347 0.000000 0.000000 0.000000 7.167116 -1.478387 9.343115 -3.137053 1.318991 2.379443 -4.723176 8.967342 5.962952 16.796075 -12.818573 -3.031870 0.000000 0.000000 0.000000 -11.696820 -18.379629 4.690388 -39.859580 -24.690468 3.564940 -45.716850 -64.867949 28.531209 0.000000 0.000000 0.000000 -3.645493 7.820962 2.707950 28.327983 24.060002 2.320770 43.732853 79.568391 47.129501 0.000000 0.000000 0.000000 
0.050578 0.949870 -0.006938 1.211644 9.427773 12.359127 5.812892 -1.154010 -16.439659 -1.775501 -0.048447 7.175917 1.122354 6.227893 8.346482 0.000000 0.000000 0.000000 -5.927713 0.793971 -15.115137 -3.727012 0.489382 0.920523 1.834103 0.037523 12.133309 0.000000 0.000000 0.000000 7.340951 -1.471454 9.044457 -3.250063 1.368791 2.209842 -4.660373 9.414053 6.184497 17.116086 -12.835546 -3.662693 0.000000 0.000000 0.000000 -11.434093 -18.209145 4.496521 -40.786917 -23.965553 3.401049 -47.595286 -65.850009 30.079782 0.000000 0.000000 0.000000 -3.319595 7.895074 2.781024 28.746644 23.393510 2.200785 49.805174 80.400976 53.649221 0.000000 0.000000 0.000000 
0.049886 0.949139 -0.007738 1.446281 10.259440 12.328774 5.667126 -1.194219 -16.568520 -1.674970 -0.073441 7.200707 0.747177 5.672871 8.404019 0.000000 0.000000 0.000000 -5.940237 0.763926 -15.051149 -4.003179 0.544780 1.188921 1.557140 -0.350522 12.038180 0.000000 0.000000 0.000000 7.475071 -1.456334 8.708507 -3.352986 1.409581 2.057711 -4.612177 9.890192 6.315437 17.427974 -12.791305 -4.386854 0.000000 0.000000 0.000000 -11.183854 -17.510313 4.039407 -42.139831 -22.953576 3.172753 -51.946889 -66.836303 33.324501 0.000000 0.000000 0.000000 -3.321286 8.181116 2.887874 29.861390 22.774352 2.226223 54.976578 80.384028 58.818528 0.000000 0.000000 0.000000 
0.048831 0.948930 -0.008632 1.840670 11.244592 12.343775 5.370273 -1.246267 -16.638874 -1.295826 -0.129526 6.959625 0.032631 4.673097 8.754573 0.000000 0.000000 0.000000 -5.871438 0.736186 -14.983865 -4.293285 0.599669 1.397804 1.034977 -1.251922 12.142622 0.000000 0.000000 0.000000 7.393103 -1.401520 8.316077 -3.281056 1.361517 2.074149 -4.692666 10.403034 6.541440 18.166882 -12.838822 -5.693511 0.000000 0.000000 0.000000 -10.735249 -17.165512 3.750338 -43.161453 -22.779435 3.136131 -53.979044 -67.459606 34.748390 0.000000 0.000000 0.000000 -2.602284 8.503249 3.144297 30.297370 22.905957 2.293506 50.503409 80.154836 54.875974 0.000000 0.000000 0.000000 
0.047582 0.948847 -0.009668 1.909523 12.174475 12.384367 5.494011 -1.276794 -16.857928 -1.254415 -0.152482 7.155051 -0.421878 3.871520 8.551540 0.000000 0.000000 0.000000 -5.666814 0.727847 -14.879957 -4.573350 0.649046 1.539019 0.858298 -1.477403 12.220985 0.000000 0.000000 0.000000 7.440862 -1.375849 7.991821 -3.343552 1.386939 1.789594 -4.672883 11.095654 6.820652 19.077783 -13.093675 -6.805151 0.000000 0.000000 0.000000 -10.254695 -17.150944 3.592170 -43.940286 -22.942186 3.190666 -56.494023 -68.162639 36.536782 0.000000 0.000000 0.000000 -2.012431 9.240918 3.572092 31.335211 23.409778 2.558979 40.049163 79.162118 45.069347 0.000000 0.000000 0.000000 
0.046324 0.948913 -0.010762 2.052065 13.182480 12.601175 5.399808 -1.331198 -17.112280 -1.022235 -0.188774 7.017727 -0.922417 3.101678 8.576177 0.000000 0.000000 0.000000 -5.577436 0.707212 -14.819883 -4.658714 0.642264 1.220605 0.258845 -2.625082 12.834630 0.000000 0.000000 0.000000 7.363222 -1.291925 7.312665 -3.534410 1.463664 1.700855 -4.628133 11.677801 6.978309 19.231206 -12.832325 -7.596494 0.000000 0.000000 0.000000 -9.565349 -17.463057 3.632646 -44.396283 -23.558461 3.345181 -56.680704 -68.676819 36.559916 0.000000 0.000000 0.000000 -1.957637 10.539722 4.135685 32.407910 24.427804 3.063818 26.368299 77.158457 32.239871 0.000000 0.000000 0.000000 
